<?xml version="1.0" encoding="UTF-8"?>
<svg version="1.1" xmlns="http://www.w3.org/2000/svg" width="650" height="650">
<path d="M0 0 C4.59029753 1.75322676 8.27394207 3.01815937 13.28027344 2.53979492 C12.95027344 3.19979492 12.62027344 3.85979492 12.28027344 4.53979492 C12.88274902 4.82064941 13.48522461 5.10150391 14.10595703 5.39086914 C47.92943041 21.21452864 77.3606329 40.28766353 104.97949219 65.46557617 C107.88940081 68.08894031 110.8761043 70.61694207 113.88183594 73.12963867 C115.28027344 74.53979492 115.28027344 74.53979492 115.28027344 76.53979492 C115.87710938 76.80147461 116.47394531 77.0631543 117.08886719 77.33276367 C119.42310418 78.6184664 120.64018274 79.81876588 122.34277344 81.85229492 C122.94992187 82.57288086 123.55707031 83.2934668 124.18261719 84.03588867 C124.87484375 84.86217773 125.56707031 85.6884668 126.28027344 86.53979492 C127.48876953 87.91844727 127.48876953 87.91844727 128.72167969 89.32495117 C140.15770992 102.42559919 150.239819 116.69312017 159.28027344 131.53979492 C159.69986328 132.22557617 160.11945312 132.91135742 160.55175781 133.61791992 C201.7753004 201.50135939 215.39642899 282.09268821 197.2644043 359.53613281 C185.5360399 407.52218775 162.9806968 452.39921822 130.28027344 489.53979492 C129.67957031 490.23975586 129.07886719 490.9397168 128.45996094 491.66088867 C126.75540421 493.64130362 125.02394375 495.5937026 123.28027344 497.53979492 C122.41015625 498.51432617 121.54003906 499.48885742 120.64355469 500.49291992 C91.11339133 533.23299084 53.23229443 558.42726867 12.28027344 574.53979492 C11.4148291 574.88042969 10.54938477 575.22106445 9.65771484 575.57202148 C-4.21531518 580.96497483 -18.22404732 585.17417303 -32.71972656 588.53979492 C-33.98333008 588.83345947 -33.98333008 588.83345947 -35.27246094 589.13305664 C-98.79317287 603.55240937 -171.17809712 598.8096145 -230.23144531 569.96411133 C-235.65175189 567.34622444 -240.18438154 565.84970854 -246.12548828 567.46679688 C-247.93170654 568.20869263 -247.93170654 568.20869263 -249.77441406 568.96557617 C-251.19155461 569.53145256 -252.60922845 570.09599466 -254.02734375 570.65942383 C-254.78366089 570.96511292 -255.53997803 571.270802 -256.31921387 571.58575439 C-260.61209105 573.2918811 -264.95374603 574.86604158 -269.29003906 576.45776367 C-271.1794923 577.15589739 -273.06881277 577.85439055 -274.95800781 578.55322266 C-282.04060925 581.16949585 -289.12403851 583.78352764 -296.20782471 586.39659119 C-301.26125641 588.26117178 -306.3130747 590.12991193 -311.36148071 592.00805664 C-323.85622916 596.65611619 -336.38232608 601.22190253 -348.99316406 605.54641724 C-350.90008859 606.20330633 -352.80220538 606.87410148 -354.70410156 607.54541016 C-365.07040809 611.04934217 -373.55500214 612.05527827 -383.71972656 607.53979492 C-390.04843259 604.25373602 -393.49648049 599.20953315 -395.71972656 592.53979492 C-396.87378002 582.11332736 -394.02917423 572.65091536 -391.28222656 562.72729492 C-390.64640361 560.38449656 -390.01489862 558.04061861 -389.38719177 555.69563293 C-388.99874886 554.24937806 -388.60511207 552.80450374 -388.20521545 551.3613739 C-387.04104267 547.08590548 -386.26103096 542.92617793 -385.71972656 538.53979492 C-385.05972656 538.53979492 -384.39972656 538.53979492 -383.71972656 538.53979492 C-383.61822296 537.89999695 -383.51671936 537.26019897 -383.41213989 536.60101318 C-382.12405386 528.98017115 -380.1809507 521.65917571 -378.02441406 514.24291992 C-377.4861018 512.35892703 -376.94780025 510.474931 -376.41012764 508.59075546 C-375.09744562 503.99686354 -373.77332488 499.40627224 -372.44580078 494.81665039 C-371.69592661 492.22257893 -370.95102471 489.62717112 -370.21121216 487.0302124 C-369.51796814 484.59830929 -368.81718838 482.16853816 -368.10787964 479.74127197 C-365.32547177 470.18912743 -365.32547177 470.18912743 -366.71972656 460.53979492 C-367.98156965 458.52084599 -369.27947931 456.52436728 -370.59472656 454.53979492 C-391.14288072 422.96092136 -405.79335298 389.17501492 -413.40722656 352.22729492 C-413.59760498 351.31753906 -413.7879834 350.4077832 -413.98413086 349.47045898 C-417.82643193 329.86517222 -419.27272112 310.36275842 -419.15722656 290.41479492 C-419.15451752 289.30793335 -419.15180847 288.20107178 -419.14901733 287.06066895 C-419.08308956 269.22648518 -418.04068405 252.09342736 -414.71972656 234.53979492 C-414.55375977 233.57009766 -414.38779297 232.60040039 -414.21679688 231.60131836 C-410.10342834 207.63540469 -401.57084086 183.29349494 -390.71972656 161.53979492 C-390.05287842 160.19763916 -390.05287842 160.19763916 -389.37255859 158.82836914 C-378.030748 136.18643185 -364.96893717 114.62409934 -348.27441406 95.49682617 C-345.97856304 92.83939616 -343.81634947 90.12050893 -341.65722656 87.35229492 C-337.31379746 82.00956239 -332.52132743 77.15883045 -327.65722656 72.28979492 C-326.90111084 71.53287354 -326.14499512 70.77595215 -325.3659668 69.99609375 C-320.63945758 65.3158674 -315.76855205 60.86832221 -310.71972656 56.53979492 C-309.73230469 55.6709668 -308.74488281 54.80213867 -307.72753906 53.90698242 C-231.32842958 -12.13994421 -124.86120169 -35.4721292 0 0 Z M-248.71972656 81.53979492 C-249.83774229 82.30741262 -250.95625161 83.07431179 -252.07519531 83.84057617 C-263.19628655 91.53358289 -273.58498537 100.08477531 -282.99316406 109.81323242 C-284.68314615 111.50321451 -286.4384004 113.02087205 -288.28222656 114.53979492 C-292.20906638 117.85031459 -295.40880999 121.62632881 -298.71972656 125.53979492 C-299.67274493 126.63217136 -300.62729379 127.72321362 -301.58300781 128.81323242 C-307.39491611 135.46626572 -312.87859428 142.13389257 -317.71972656 149.53979492 C-318.12545898 150.15193848 -318.53119141 150.76408203 -318.94921875 151.39477539 C-322.26823085 156.40435702 -325.51994024 161.45326287 -328.71972656 166.53979492 C-329.27128418 167.4132959 -329.27128418 167.4132959 -329.83398438 168.30444336 C-345.57713247 193.55687554 -354.65175435 223.07051451 -359.40722656 252.28979492 C-359.52678711 253.02157959 -359.64634766 253.75336426 -359.76953125 254.50732422 C-361.57162967 266.29801018 -361.92801842 278.1287257 -361.90722656 290.03979492 C-361.90628998 290.739776 -361.90535339 291.43975708 -361.90438843 292.16094971 C-361.75995779 342.25917087 -347.57662906 390.65104482 -318.84667969 431.91137695 C-317.09249762 434.44612444 -315.39899822 437.01746561 -313.71972656 439.60229492 C-313.18347656 440.41827148 -312.64722656 441.23424805 -312.09472656 442.07495117 C-306.13409711 452.76005681 -308.83884289 463.60248276 -312.00878906 474.78198242 C-312.34969574 476.0261795 -312.69060242 477.27037659 -313.0418396 478.55227661 C-313.94448394 481.84545222 -314.86389006 485.13371179 -315.7869873 488.42120361 C-316.70355564 491.69739878 -317.60331765 494.97819628 -318.50488281 498.25854492 C-321.92417095 510.67290202 -325.40104036 523.07094546 -329.01260376 535.43087769 C-330.2599523 539.41914824 -330.2599523 539.41914824 -330.71972656 543.53979492 C-325.46944159 542.93496622 -321.2089305 541.21936333 -316.42675781 539.11401367 C-314.72654576 538.38217867 -313.0254913 537.65229857 -311.32373047 536.92407227 C-310.41770081 536.53604431 -309.51167114 536.14801636 -308.57818604 535.74822998 C-300.33490245 532.26332037 -292.00348878 528.98681133 -283.69311523 525.66601562 C-280.39276384 524.34651263 -277.09429263 523.02238473 -273.79589844 521.69799805 C-238.37180714 507.5054811 -238.37180714 507.5054811 -228.53222656 511.47729492 C-225.52911892 512.80285615 -222.5437606 514.16150702 -219.56054688 515.53100586 C-155.1863199 544.87530606 -79.78820617 545.89171278 -13.61425781 521.44213867 C6.36065978 513.80431789 25.90124909 504.05723599 43.28027344 491.53979492 C44.20767334 490.87294678 44.20767334 490.87294678 45.15380859 490.19262695 C55.04725766 483.03846096 64.31631723 475.54766834 72.93261719 466.86791992 C75.28027344 464.53979492 75.28027344 464.53979492 77.65527344 462.72729492 C81.26967545 459.71529325 84.45244829 456.30479554 87.28027344 452.53979492 C87.28027344 451.87979492 87.28027344 451.21979492 87.28027344 450.53979492 C87.94027344 450.53979492 88.60027344 450.53979492 89.28027344 450.53979492 C90.61112071 449.2092896 90.61112071 449.2092896 91.93261719 447.41870117 C92.45637939 446.73912354 92.9801416 446.0595459 93.51977539 445.359375 C94.08011475 444.61453857 94.6404541 443.86970215 95.21777344 443.10229492 C96.08631958 441.95506958 96.08631958 441.95506958 96.97241211 440.78466797 C102.82542708 432.96009425 108.15790531 424.85637883 113.28027344 416.53979492 C113.97636719 415.42733398 114.67246094 414.31487305 115.38964844 413.16870117 C132.93252306 383.94227205 142.34461524 350.18047705 146.28027344 316.53979492 C146.41304687 315.42991211 146.54582031 314.3200293 146.68261719 313.17651367 C150.97708506 268.76112675 142.06755611 224.72095283 123.28027344 184.53979492 C122.92819824 183.78053711 122.57612305 183.0212793 122.21337891 182.23901367 C112.37732354 161.21186259 99.07673689 142.51556213 83.28027344 125.53979492 C82.04609731 124.12749028 80.81667441 122.71101326 79.59277344 121.28979492 C76.6157845 117.88356572 73.59434265 114.62265001 70.28027344 111.53979492 C69.62027344 111.53979492 68.96027344 111.53979492 68.28027344 111.53979492 C68.28027344 110.87979492 68.28027344 110.21979492 68.28027344 109.53979492 C66.93771944 108.10279271 66.93771944 108.10279271 65.09277344 106.60229492 C64.36058594 105.98225586 63.62839844 105.3622168 62.87402344 104.72338867 C62.01808594 104.00280273 61.16214844 103.2822168 60.28027344 102.53979492 C58.81074219 101.25782227 58.81074219 101.25782227 57.31152344 99.94995117 C46.12865664 90.23111736 34.08759346 82.00264815 21.28027344 74.53979492 C20.51634277 74.0923291 19.75241211 73.64486328 18.96533203 73.18383789 C-62.40181835 25.97352813 -170.90420058 26.60512559 -248.71972656 81.53979492 Z " fill="#FD8A1F" transform="translate(434.7197265625,26.460205078125)"/>
<path d="M0 0 C11.77971237 6.27231438 16.17260381 20.77775003 21.3046875 32.3359375 C26.55828055 44.12287162 26.55828055 44.12287162 32.0234375 55.8125 C32.46623047 56.74143066 32.90902344 57.67036133 33.36523438 58.62744141 C35.52239293 62.12440909 37.54334169 63.56786316 41.45581055 64.78710938 C53.78722875 67.28432356 66.22313454 69.08253178 78.66870117 70.90869141 C81.63829674 71.34620529 84.60627377 71.79363237 87.57421875 72.2421875 C88.91514336 72.43451965 88.91514336 72.43451965 90.28315735 72.6307373 C106.14883421 75.04724664 106.14883421 75.04724664 110.7421875 80.8984375 C111.28746094 81.56746094 111.83273437 82.23648438 112.39453125 82.92578125 C115.05645611 86.7675066 116.11227783 89.49226049 116.1796875 94.2109375 C116.20804688 95.10296875 116.23640625 95.995 116.265625 96.9140625 C115.03780643 105.03015136 109.93930265 110.40459298 104.265625 115.9609375 C103.54355865 116.6820874 102.82149231 117.4032373 102.07754517 118.14624023 C100.56098994 119.65678788 99.03961142 121.1625071 97.51367188 122.66357422 C95.16924159 124.97121951 92.84148349 127.2947456 90.515625 129.62109375 C89.03740344 131.08949371 87.55826898 132.55697536 86.078125 134.0234375 C85.37916107 134.72017578 84.68019714 135.41691406 83.96005249 136.13476562 C83.3124295 136.76962891 82.66480652 137.40449219 81.99755859 138.05859375 C81.42782318 138.62070557 80.85808777 139.18281738 80.27108765 139.76196289 C78.8046875 140.9609375 78.8046875 140.9609375 76.8046875 140.9609375 C76.8046875 141.6209375 76.8046875 142.2809375 76.8046875 142.9609375 C75.1953125 144.51171875 75.1953125 144.51171875 73.0546875 146.2734375 C72.32894531 146.90507812 71.60320312 147.53671875 70.85546875 148.1875 C69.32239117 149.51324709 67.78370225 150.83251027 66.2421875 152.1484375 C61.56310424 161.30316561 67.77039408 177.71928732 69.7421875 187.4609375 C70.46242916 191.05413244 71.17917552 194.64801689 71.89453125 198.2421875 C72.06494431 199.09689636 72.23535736 199.95160522 72.41093445 200.83221436 C77.56974601 226.86033803 77.56974601 226.86033803 72.8046875 234.9609375 C68.5927038 239.79902688 64.27701351 243.06820288 57.8046875 243.9609375 C44.43874559 244.75566918 31.25631357 234.62797407 20.3046875 228.0234375 C19.11930005 227.3162438 17.93342266 226.60987072 16.74707031 225.90429688 C11.88135745 223.00894888 7.02460011 220.100312 2.1953125 217.14453125 C0.98195365 216.41636196 -0.231566 215.68846047 -1.4453125 214.9609375 C-2.41984375 214.3628125 -3.394375 213.7646875 -4.3984375 213.1484375 C-7.93283013 211.64780152 -10.3683085 211.69026234 -14.1953125 211.9609375 C-17.30975108 213.1581273 -17.30975108 213.1581273 -20.30859375 214.96875 C-20.87228165 215.28624207 -21.43596954 215.60373413 -22.01673889 215.93084717 C-23.22627709 216.61434162 -24.43202824 217.30457426 -25.63421631 218.00091553 C-27.53272095 219.10036228 -29.44056048 220.18160764 -31.35205078 221.25830078 C-33.9914204 222.74579965 -36.6274473 224.23896179 -39.26123047 225.73632812 C-45.32514304 229.17492018 -51.44246155 232.51302976 -57.5703125 235.8359375 C-58.63805908 236.42391113 -59.70580566 237.01188477 -60.8059082 237.61767578 C-69.5057463 242.33710897 -76.22820718 245.1597997 -86.1953125 242.9609375 C-92.28635943 240.68710373 -96.48158589 236.41735249 -99.34469604 230.64274597 C-102.17906225 221.70660648 -98.43867983 210.3750452 -96.4375 201.50390625 C-95.88911729 198.9850708 -95.34094638 196.46618923 -94.79296875 193.94726562 C-93.9302775 190.03165244 -93.06347667 186.11701036 -92.19189453 182.20336914 C-91.34362043 178.38978869 -90.51598955 174.57183371 -89.6875 170.75390625 C-89.42299042 169.58917282 -89.15848083 168.42443939 -88.88595581 167.22441101 C-87.56013512 161.08105134 -86.82389268 156.13164799 -88.1953125 149.9609375 C-89.44033178 147.84714205 -89.44033178 147.84714205 -91.2578125 146.3984375 C-91.89332031 145.82480469 -92.52882813 145.25117188 -93.18359375 144.66015625 C-93.84746094 144.09941406 -94.51132812 143.53867187 -95.1953125 142.9609375 C-96.44618099 141.87860708 -97.69616269 140.79525105 -98.9453125 139.7109375 C-99.61046875 139.13859375 -100.275625 138.56625 -100.9609375 137.9765625 C-103.63515523 135.5641563 -106.16706218 133.02384512 -108.6953125 130.4609375 C-111.76920769 127.34513508 -114.86233464 124.30216453 -118.1953125 121.4609375 C-136.26818642 105.85254639 -136.26818642 105.85254639 -137.5234375 95.16796875 C-137.79097844 88.08768885 -136.56284441 83.7123935 -131.8828125 78.2734375 C-126.82753497 73.92354753 -121.83834957 72.45875515 -115.32421875 71.6796875 C-114.57293701 71.58101883 -113.82165527 71.48235016 -113.04760742 71.38069153 C-110.61884953 71.06407978 -108.18847341 70.76255497 -105.7578125 70.4609375 C-104.08506562 70.24481037 -102.41245819 70.02760123 -100.73999023 69.80932617 C-93.44702867 68.86187245 -86.14900334 67.95514886 -78.8515625 67.04296875 C-77.80282959 66.91019531 -76.75409668 66.77742188 -75.67358398 66.640625 C-73.791102 66.4035612 -71.90783089 66.17264497 -70.02368164 65.94921875 C-69.19473389 65.84609375 -68.36578613 65.74296875 -67.51171875 65.63671875 C-66.46673218 65.5116394 -66.46673218 65.5116394 -65.40063477 65.3840332 C-59.62983159 64.38589976 -59.62983159 64.38589976 -55.46362305 60.57275391 C-55.00769775 59.57937012 -54.55177246 58.58598633 -54.08203125 57.5625 C-53.56060547 56.45245605 -53.03917969 55.34241211 -52.50195312 54.19873047 C-51.96763672 53.00650879 -51.43332031 51.81428711 -50.8828125 50.5859375 C-50.31493554 49.35871044 -49.74525858 48.13231477 -49.17382812 46.90673828 C-47.48632677 43.27044852 -45.83784652 39.61776624 -44.1953125 35.9609375 C-43.73592285 34.94193359 -43.2765332 33.92292969 -42.80322266 32.87304688 C-40.46829851 27.69298243 -40.46829851 27.69298243 -38.17456055 22.49462891 C-33.73364295 12.38603313 -29.72104814 4.65475012 -19.8828125 -0.9140625 C-13.08008385 -2.98947124 -6.55630714 -2.87003004 0 0 Z " fill="#FD8A1F" transform="translate(416.1953125,145.0390625)"/>
<path d="M0 0 C0.83071518 0.02361099 1.66143036 0.04722198 2.51731873 0.07154846 C5.13545751 0.14729549 7.7532313 0.23169437 10.37109375 0.31640625 C12.16079023 0.36971636 13.95050381 0.4224559 15.74023438 0.47460938 C20.09657933 0.60278792 24.45261937 0.73871909 28.80859375 0.87890625 C28.80859375 1.20890625 28.80859375 1.53890625 28.80859375 1.87890625 C27.71865112 1.90078003 27.71865112 1.90078003 26.60668945 1.9230957 C12.35814826 2.238393 -1.76450307 2.84603923 -15.94140625 4.31640625 C-17.73130981 4.49973511 -17.73130981 4.49973511 -19.55737305 4.68676758 C-25.25810935 5.31107792 -30.76047907 6.07901488 -36.29785156 7.59399414 C-38.51796391 7.92804147 -40.06648289 7.54789645 -42.19140625 6.87890625 C-41.86140625 6.21890625 -41.53140625 5.55890625 -41.19140625 4.87890625 C-39.109375 4.30053711 -39.109375 4.30053711 -36.37890625 3.84375 C-35.38503906 3.67423828 -34.39117187 3.50472656 -33.3671875 3.33007812 C-31.79517578 3.07581055 -31.79517578 3.07581055 -30.19140625 2.81640625 C-29.17433594 2.64302734 -28.15726562 2.46964844 -27.109375 2.29101562 C-17.99697474 0.76448387 -9.24559287 -0.31851488 0 0 Z " fill="#FE952D" transform="translate(310.19140625,64.12109375)"/>
<path d="M0 0 C8.15198313 -0.3385523 15.80009677 0.94950497 23.8125 2.375 C25.13467399 2.59949869 26.45693921 2.82346074 27.77929688 3.046875 C38.32937924 4.8892109 38.32937924 4.8892109 42 7 C36.33333333 7 30.66666667 7 25 7 C25 6.34 25 5.68 25 5 C24.0821875 4.93941406 23.164375 4.87882813 22.21875 4.81640625 C18.47774739 4.56098065 14.73884879 4.2851324 11 4 C9.71029297 3.90912109 9.71029297 3.90912109 8.39453125 3.81640625 C4.44965478 3.45374406 2.61118483 2.9504022 0 0 Z " fill="#FE8F23" transform="translate(357,9)"/>
<path d="M0 0 C6.27 0.33 12.54 0.66 19 1 C19 1.33 19 1.66 19 2 C-3.82663427 3.70887297 -26.13197197 4.43405327 -49 3 C-49 2.67 -49 2.34 -49 2 C-32.83 1.67 -16.66 1.34 0 1 C0 0.67 0 0.34 0 0 Z " fill="#FC9B34" transform="translate(349,619)"/>
<path d="M0 0 C5.69253284 -0.04967973 11.38493762 -0.08585156 17.07763672 -0.10986328 C19.01157837 -0.11988036 20.94550504 -0.13349784 22.87939453 -0.15087891 C25.66963414 -0.17531686 28.45967236 -0.18652628 31.25 -0.1953125 C32.533302 -0.21079636 32.533302 -0.21079636 33.8425293 -0.22659302 C39.2306838 -0.22758534 43.82251183 0.49163903 49 2 C49 2.33 49 2.66 49 3 C40.25886735 3.05648696 31.5465934 2.90979036 22.8125 2.5625 C21.71486328 2.52318359 20.61722656 2.48386719 19.48632812 2.44335938 C12.95828594 2.19063588 6.49086444 1.74350731 0 1 C0 0.67 0 0.34 0 0 Z " fill="#FE7E10" transform="translate(314,8)"/>
<path d="M0 0 C0.33 0 0.66 0 1 0 C2.66954058 15.0458464 3.27257825 29.86561712 3 45 C2.67 45 2.34 45 2 45 C1.67 42.36 1.34 39.72 1 37 C0.67 37 0.34 37 0 37 C-0.19972589 32.89633488 -0.38249433 28.79207368 -0.5625 24.6875 C-0.61857422 23.53958984 -0.67464844 22.39167969 -0.73242188 21.20898438 C-1.03709395 14.03903491 -0.86666826 7.12583858 0 0 Z " fill="#FD9631" transform="translate(637,282)"/>
<path d="M0 0 C0.33 0 0.66 0 1 0 C2.73809521 13.61965136 3.25472834 26.96689223 3.125 40.6875 C3.11493057 42.57616703 3.10581186 44.46483937 3.09765625 46.35351562 C3.07600143 50.90247939 3.04169994 55.45117767 3 60 C2.34 60 1.68 60 1 60 C1 61.65 1 63.3 1 65 C0.67 65 0.34 65 0 65 C0.0721875 63.8346875 0.144375 62.669375 0.21875 61.46875 C1.4128066 40.93820022 1.19727572 20.52472655 0 0 Z " fill="#FDA342" transform="translate(580,285)"/>
<path d="M0 0 C0.33 0 0.66 0 1 0 C1.60997874 12.83214532 -0.23715873 25.31942017 -2 38 C-2.33 38 -2.66 38 -3 38 C-4.60984631 28.17993749 -3.21648799 18.79222567 -2 9 C-1.67 9 -1.34 9 -1 9 C-0.67 6.03 -0.34 3.06 0 0 Z " fill="#FD942F" transform="translate(638,328)"/>
<path d="M0 0 C0.33 0 0.66 0 1 0 C1.02895976 3.12498063 1.04678483 6.2499269 1.0625 9.375 C1.07087891 10.26445312 1.07925781 11.15390625 1.08789062 12.0703125 C1.09111328 12.92109375 1.09433594 13.771875 1.09765625 14.6484375 C1.10289307 15.43395996 1.10812988 16.21948242 1.11352539 17.02880859 C1 19 1 19 0 21 C-0.15441209 23.10374996 -0.24992639 25.21195119 -0.31640625 27.3203125 C-0.35830078 28.57714844 -0.40019531 29.83398438 -0.44335938 31.12890625 C-0.48267578 32.44761719 -0.52199219 33.76632812 -0.5625 35.125 C-0.60569512 36.46485751 -0.64930973 37.80470156 -0.69335938 39.14453125 C-0.79970981 42.42957815 -0.90173808 45.71470281 -1 49 C-1.33 49 -1.66 49 -2 49 C-2.02502961 44.37760802 -2.04301321 39.75525692 -2.05493164 35.1328125 C-2.059909 33.5657482 -2.06669329 31.99868842 -2.07543945 30.43164062 C-2.20487968 6.61463904 -2.20487968 6.61463904 0 0 Z " fill="#FE7C13" transform="translate(73,282)"/>
<path d="M0 0 C1.53059747 0.00503112 3.06119657 0.00959114 4.59179688 0.01367188 C8.29039911 0.02453576 11.98893864 0.04170899 15.6875 0.0625 C15.6875 0.3925 15.6875 0.7225 15.6875 1.0625 C7.2725 1.5575 7.2725 1.5575 -1.3125 2.0625 C-1.3125 2.3925 -1.3125 2.7225 -1.3125 3.0625 C-11.05194972 3.18526617 -20.60306184 2.90029436 -30.3125 2.0625 C-30.3125 1.7325 -30.3125 1.4025 -30.3125 1.0625 C-20.18335547 0.08111811 -10.16167172 -0.05889214 0 0 Z " fill="#FDA33B" transform="translate(325.3125,6.9375)"/>
<path d="M0 0 C0.33 0 0.66 0 1 0 C1.8621862 4.59832639 1.97247425 8.25164303 1.2578125 12.93359375 C0.83822406 16.29665864 0.93954947 19.61477051 1 23 C0.67 22.34 0.34 21.68 0 21 C-0.66 21 -1.32 21 -2 21 C-2.22424141 13.63740707 -1.90120099 7.12950371 0 0 Z " fill="#FD952F" transform="translate(41,598)"/>
<path d="M0 0 C0.66 0 1.32 0 2 0 C1.688288 2.52093298 1.37565098 5.0417457 1.0625 7.5625 C0.97548828 8.26697266 0.88847656 8.97144531 0.79882812 9.69726562 C0.24615509 14.13911927 -0.35394596 18.57074664 -1 23 C-1.33 23 -1.66 23 -2 23 C-3.24865786 15.3730628 -2.80920127 8.52181624 -1 1 C-0.67 0.67 -0.34 0.34 0 0 Z " fill="#FD922B" transform="translate(76,265)"/>
<path d="M0 0 C2 1 2 1 3 3 C2.1028125 3.309375 2.1028125 3.309375 1.1875 3.625 C-1.80115041 5.50358026 -2.5278368 7.85492408 -4 11 C-4.99 11.495 -4.99 11.495 -6 12 C-6.46751788 14.35599235 -6.46751788 14.35599235 -6.625 17.0625 C-6.69976562 17.98160156 -6.77453125 18.90070313 -6.8515625 19.84765625 C-6.90054687 20.55792969 -6.94953125 21.26820313 -7 22 C-7.33 22 -7.66 22 -8 22 C-8.56843736 10.16808169 -8.56843736 10.16808169 -5 5 C-2.3125 2.125 -2.3125 2.125 0 0 Z " fill="#FC9731" transform="translate(287,221)"/>
<path d="M0 0 C0 0.33 0 0.66 0 1 C2.31 1.66 4.62 2.32 7 3 C3.18589532 4.35063059 0.00806732 3.72946257 -3.9375 3.125 C-10.94266182 2.09648149 -17.93225469 1.45290779 -25 1 C-25 0.67 -25 0.34 -25 0 C-16.50791416 -0.73598077 -8.46904477 -1.29526567 0 0 Z " fill="#FDA240" transform="translate(367,66)"/>
<path d="M0 0 C1.75776676 6.51763881 0.39958006 12.76109185 -2 19 C-2.66 19 -3.32 19 -4 19 C-4.33 20.65 -4.66 22.3 -5 24 C-6.15294668 20.54115996 -5.79943888 19.52872276 -4.78515625 16.11328125 C-4.37426758 14.7065918 -4.37426758 14.7065918 -3.95507812 13.27148438 C-3.66052734 12.29501953 -3.36597656 11.31855469 -3.0625 10.3125 C-2.77181641 9.32443359 -2.48113281 8.33636719 -2.18164062 7.31835938 C-1.46206783 4.8765304 -0.73459007 2.43734518 0 0 Z " fill="#FD9530" transform="translate(68,501)"/>
<path d="M0 0 C5.20767595 7.81151392 4.21079093 17.0062536 4 26 C3.67 26 3.34 26 3 26 C-0.57446809 8.85106383 -0.57446809 8.85106383 0 0 Z " fill="#FE902B" transform="translate(576,257)"/>
<path d="M0 0 C0.33 0 0.66 0 1 0 C1.52992381 2.76937583 2.0492458 5.54003079 2.5625 8.3125 C2.71396484 9.09818359 2.86542969 9.88386719 3.02148438 10.69335938 C3.16005859 11.45068359 3.29863281 12.20800781 3.44140625 12.98828125 C3.57232666 13.68477783 3.70324707 14.38127441 3.83813477 15.09887695 C4 17 4 17 3 20 C2.34 19.67 1.68 19.34 1 19 C-0.72366269 12.60934419 -1.46993777 6.46772619 0 0 Z " fill="#FE912A" transform="translate(75,354)"/>
<path d="M0 0 C0 7 0 7 -2.25 9.3125 C-5 11 -5 11 -7.171875 10.60546875 C-8.07679687 10.30576172 -8.07679687 10.30576172 -9 10 C-7.8758824 8.70756532 -6.75067408 7.41607925 -5.625 6.125 C-4.99851562 5.40570313 -4.37203125 4.68640625 -3.7265625 3.9453125 C-2.52573166 2.5923402 -1.2791655 1.2791655 0 0 Z " fill="#FC922C" transform="translate(105,101)"/>
<path d="M0 0 C2.26169766 3.68713736 2.63948566 7.539556 3.125 11.75 C3.21136719 12.44738281 3.29773438 13.14476562 3.38671875 13.86328125 C3.59771846 15.57472332 3.79975501 17.28726629 4 19 C3.67 18.34 3.34 17.68 3 17 C2.34 17 1.68 17 1 17 C-1.48063781 5.47835991 -1.48063781 5.47835991 0 0 Z " fill="#FD942E" transform="translate(483,322)"/>
<path d="M0 0 C2.125 0.9375 2.125 0.9375 4 2 C-2.53891996 4.7956252 -8.00819076 5.60606326 -15 4 C-17.29296875 2.94921875 -17.29296875 2.94921875 -19 2 C-18.34 1.67 -17.68 1.34 -17 1 C-16.01 1.33 -15.02 1.66 -14 2 C-11.94106379 2.22325814 -9.87766347 2.40705759 -7.8125 2.5625 C-6.72582031 2.64628906 -5.63914062 2.73007812 -4.51953125 2.81640625 C-3.27236328 2.90728516 -3.27236328 2.90728516 -2 3 C-2 2.34 -2 1.68 -2 1 C-1.34 0.67 -0.68 0.34 0 0 Z " fill="#FC9E37" transform="translate(345,384)"/>
<path d="M0 0 C6.27 0.33 12.54 0.66 19 1 C19 1.33 19 1.66 19 2 C10.64736824 2.95458649 2.40215965 3.11039334 -6 3 C-6 2.67 -6 2.34 -6 2 C-4.02 1.67 -2.04 1.34 0 1 C0 0.67 0 0.34 0 0 Z " fill="#FDA444" transform="translate(349,619)"/>
<path d="M0 0 C6.49850211 0.51553879 12.66226532 1.46667709 19 3 C19 3.33 19 3.66 19 4 C13.33333333 4 7.66666667 4 2 4 C2 3.34 2 2.68 2 2 C1.34 1.34 0.68 0.68 0 0 Z " fill="#FD9A32" transform="translate(380,12)"/>
<path d="M0 0 C0.66 0.33 1.32 0.66 2 1 C1.34 2.32 0.68 3.64 0 5 C-0.66 5 -1.32 5 -2 5 C-2.33 5.99 -2.66 6.98 -3 8 C-4.875 9.75 -4.875 9.75 -7 11 C-7.99 10.67 -8.98 10.34 -10 10 C-6.7 6.7 -3.4 3.4 0 0 Z " fill="#FD962F" transform="translate(116,90)"/>
<path d="M0 0 C3 2 3 2 3.4765625 4.09375 C3.52554687 4.8878125 3.57453125 5.681875 3.625 6.5 C3.82462241 9.87761268 3.82462241 9.87761268 5 13 C4.72057545 14.67654729 4.39171753 16.34608154 4 18 C3.67 18 3.34 18 3 18 C2.49309416 15.93918639 1.99475381 13.87626474 1.5 11.8125 C1.2215625 10.66394531 0.943125 9.51539063 0.65625 8.33203125 C0.08504615 5.43181171 -0.13283779 2.93903615 0 0 Z " fill="#FC9835" transform="translate(21,373)"/>
<path d="M0 0 C1.95273962 2.92910944 2.75396363 5.08132291 3.6875 8.4375 C3.95949219 9.38496094 4.23148438 10.33242187 4.51171875 11.30859375 C4.99803744 13.98918237 4.89369149 15.46287583 4 18 C0.5965383 14.5965383 0.14884531 9.55827869 -0.125 4.8515625 C-0.125 3.23383832 -0.06877709 1.6162615 0 0 Z " fill="#FD9531" transform="translate(627,234)"/>
<path d="M0 0 C1.44715727 3.87186448 0.5441918 6.8232328 -0.4375 10.75 C-0.86869141 12.50570313 -0.86869141 12.50570313 -1.30859375 14.296875 C-1.53675781 15.18890625 -1.76492188 16.0809375 -2 17 C-2.33 17 -2.66 17 -3 17 C-3.19529239 5.82493564 -3.19529239 5.82493564 -2 2 C-1.34 1.34 -0.68 0.68 0 0 Z " fill="#FE962F" transform="translate(632,377)"/>
<path d="M0 0 C-0.33 0.99 -0.66 1.98 -1 3 C-2.98 3.33 -4.96 3.66 -7 4 C-6.34 3.67 -5.68 3.34 -5 3 C-8.41099168 3 -11.63088314 3.49145406 -15 4 C-12.39457984 2.26305323 -10.41657225 1.30899552 -7.5 0.3125 C-6.33984375 -0.09548828 -6.33984375 -0.09548828 -5.15625 -0.51171875 C-3 -1 -3 -1 0 0 Z " fill="#FD9B35" transform="translate(236,22)"/>
<path d="M0 0 C5.23880078 0.55145271 9.97350697 1.42922093 15 3 C13.5 4.125 13.5 4.125 11 5 C8.2226918 4.57598348 5.70360217 3.81108065 3 3 C3 2.34 3 1.68 3 1 C2.01 0.67 1.02 0.34 0 0 Z " fill="#FE982F" transform="translate(399,16)"/>
<path d="M0 0 C0.639375 0.268125 1.27875 0.53625 1.9375 0.8125 C5.91202261 2.35364142 9.94884495 3.67609312 14 5 C14 5.33 14 5.66 14 6 C5.9870188 6.78558639 5.9870188 6.78558639 1.9375 3.5625 C0 1 0 1 0 0 Z " fill="#FD7F16" transform="translate(47,629)"/>
<path d="M0 0 C-1.59915881 0.69906942 -3.20455045 1.38389468 -4.8125 2.0625 C-5.70582031 2.44535156 -6.59914062 2.82820312 -7.51953125 3.22265625 C-10 4 -10 4 -13 3 C-13 2.34 -13 1.68 -13 1 C-11.59054634 0.43983252 -10.1719969 -0.09748502 -8.75 -0.625 C-7.96109375 -0.92664063 -7.1721875 -1.22828125 -6.359375 -1.5390625 C-3.50082285 -2.09752136 -2.41040161 -1.53690745 0 0 Z " fill="#FD922A" transform="translate(181,597)"/>
<path d="M0 0 C1.125 1.5 1.125 1.5 2 4 C1.57598348 6.7773082 0.81108065 9.29639783 0 12 C-0.66 12 -1.32 12 -2 12 C-2.33 12.66 -2.66 13.32 -3 14 C-2.69024532 12.22868439 -2.37709575 10.45796222 -2.0625 8.6875 C-1.88847656 7.70136719 -1.71445312 6.71523438 -1.53515625 5.69921875 C-1 3 -1 3 0 0 Z " fill="#FD942F" transform="translate(49,569)"/>
<path d="M0 0 C0.33 0 0.66 0 1 0 C1.82351864 6.38226945 2.12086218 12.56744599 2 19 C-0.64997034 16.35684192 -0.9969914 15.14884659 -1.07421875 11.328125 C-0.96191582 9.96727774 -0.832515 8.60775103 -0.6875 7.25 C-0.62626953 6.55261719 -0.56503906 5.85523438 -0.50195312 5.13671875 C-0.34937092 3.42310319 -0.17666411 1.7113005 0 0 Z " fill="#FCA243" transform="translate(637,282)"/>
<path d="M0 0 C0.33 0.66 0.66 1.32 1 2 C-4.93024803 2.97040422 -10.06390334 2.89316269 -16 2 C-16 1.67 -16 1.34 -16 1 C-10.61509359 0.08342019 -5.45769811 -0.11138159 0 0 Z " fill="#FD9D3B" transform="translate(339,213)"/>
<path d="M0 0 C0.66 0.33 1.32 0.66 2 1 C-3.09090909 6.27272727 -3.09090909 6.27272727 -6 8 C-7.32 7.67 -8.64 7.34 -10 7 C-6.7 4.69 -3.4 2.38 0 0 Z " fill="#FD932A" transform="translate(164,53)"/>
<path d="M0 0 C2.52394612 3.12488567 4.39701907 6.31314387 6 10 C5.67 10.66 5.34 11.32 5 12 C2.02473335 9.44977144 0.49877698 6.59706474 -1 3 C-0.67 2.01 -0.34 1.02 0 0 Z " fill="#FD912B" transform="translate(96,424)"/>
<path d="M0 0 C2.11044382 3.16566573 2.75552077 5.51197415 3.625 9.1875 C3.88539062 10.27417969 4.14578125 11.36085938 4.4140625 12.48046875 C4.60742188 13.31191406 4.80078125 14.14335937 5 15 C4.01 14.67 3.02 14.34 2 14 C1.66179834 12.4176994 1.32964061 10.83410625 1 9.25 C0.814375 8.36828125 0.62875 7.4865625 0.4375 6.578125 C0 4 0 4 0 0 Z " fill="#FD9833" transform="translate(81,384)"/>
<path d="M0 0 C0.33 0 0.66 0 1 0 C1.33 6.93 1.66 13.86 2 21 C1.67 19.68 1.34 18.36 1 17 C0.34 17 -0.32 17 -1 17 C-0.67 11.39 -0.34 5.78 0 0 Z " fill="#FEA544" transform="translate(73,333)"/>
<path d="M0 0 C1.91302307 3.26613695 2.35674661 5.99445248 2.625 9.75 C2.69976563 10.73484375 2.77453125 11.7196875 2.8515625 12.734375 C2.92503906 13.85585938 2.92503906 13.85585938 3 15 C-0.4273609 11.9595992 -0.68485364 9.56962218 -1 5 C-0.5625 2.0625 -0.5625 2.0625 0 0 Z " fill="#FD9733" transform="translate(632,253)"/>
<path d="M0 0 C3.35810395 1.38956025 5.18586552 2.82526467 7 6 C7.1875 8.75 7.1875 8.75 7 11 C6.01 11.495 6.01 11.495 5 12 C4.87625 10.9171875 4.87625 10.9171875 4.75 9.8125 C3.85274392 6.44778969 2.21462486 4.64326193 0 2 C0 1.34 0 0.68 0 0 Z " fill="#FD932C" transform="translate(63,478)"/>
<path d="M0 0 C2.97069541 2.54631035 4.4775751 5.42230149 6 9 C5.67 9.66 5.34 10.32 5 11 C4.34 11 3.68 11 3 11 C0 4.5 0 4.5 0 0 Z " fill="#FD9530" transform="translate(600,170)"/>
<path d="M0 0 C0.66 0.66 1.32 1.32 2 2 C0.63016497 5.16115776 0.0109362 5.9927092 -3 8 C-4.98799818 8.70164642 -6.98698517 9.37372872 -9 10 C-8.2575 9.278125 -7.515 8.55625 -6.75 7.8125 C-4.30709485 5.31407427 -2.1318953 2.76356798 0 0 Z " fill="#FD9832" transform="translate(497,501)"/>
<path d="M0 0 C0.33 0 0.66 0 1 0 C0.88610125 1.79240663 0.75852313 3.58394835 0.625 5.375 C0.52058594 6.87160156 0.52058594 6.87160156 0.4140625 8.3984375 C0 11 0 11 -2 13 C-2.05416188 11.39620659 -2.09286638 9.79188594 -2.125 8.1875 C-2.14820313 7.29417969 -2.17140625 6.40085937 -2.1953125 5.48046875 C-2 3 -2 3 0 0 Z " fill="#FE8215" transform="translate(325,328)"/>
<path d="M0 0 C3.3 0 6.6 0 10 0 C9.01 1.485 9.01 1.485 8 3 C5.6171875 3.29296875 5.6171875 3.29296875 2.875 3.1875 C1.96492188 3.16042969 1.05484375 3.13335937 0.1171875 3.10546875 C-0.58148438 3.07066406 -1.28015625 3.03585938 -2 3 C-1.34 2.67 -0.68 2.34 0 2 C0 1.34 0 0.68 0 0 Z " fill="#FE9128" transform="translate(400,143)"/>
<path d="M0 0 C0.33 0 0.66 0 1 0 C1.08121924 1.60332791 1.13929134 3.20784026 1.1875 4.8125 C1.22230469 5.70582031 1.25710938 6.59914063 1.29296875 7.51953125 C0.95081002 10.41647515 0.24606427 11.22555028 -2 13 C-3.45047396 10.09905209 -2.45356803 8.44027404 -1.5625 5.375 C-1.27503906 4.37210937 -0.98757813 3.36921875 -0.69140625 2.3359375 C-0.46324219 1.56507813 -0.23507812 0.79421875 0 0 Z " fill="#FE942D" transform="translate(573,381)"/>
<path d="M0 0 C-0.99 1.485 -0.99 1.485 -2 3 C-4.09375 3.36328125 -4.09375 3.36328125 -6.5 3.3125 C-7.2940625 3.30863281 -8.088125 3.30476562 -8.90625 3.30078125 C-11 3 -11 3 -13 1 C-8.61414671 0.29826347 -4.44209357 -0.10834375 0 0 Z " fill="#FD9B36" transform="translate(321,215)"/>
<path d="M0 0 C0.66 0.33 1.32 0.66 2 1 C-2.30769231 6.78461538 -2.30769231 6.78461538 -5.8125 7.875 C-6.8953125 7.936875 -6.8953125 7.936875 -8 8 C-5.58443874 4.80800833 -3.31996462 2.25283313 0 0 Z " fill="#FD932D" transform="translate(141,69)"/>
<path d="M0 0 C0.66 0.33 1.32 0.66 2 1 C-1.17320782 4.53586014 -3.16743695 6.58578031 -8 7 C-5.4837822 4.39391727 -2.94865641 2.10618315 0 0 Z " fill="#FE922B" transform="translate(479,516)"/>
<path d="M0 0 C0.33 0.66 0.66 1.32 1 2 C1.66 2 2.32 2 3 2 C3.33 4.64 3.66 7.28 4 10 C3.01 10.495 3.01 10.495 2 11 C0.80712589 7.12315913 0 4.08378077 0 0 Z " fill="#FD8F2B" transform="translate(25,391)"/>
<path d="M0 0 C-2.87949147 2.23960447 -5.76742026 4.29864224 -9 6 C-9.66 5.67 -10.32 5.34 -11 5 C-7.17906575 1.05170128 -5.52310605 -0.1453449 0 0 Z " fill="#FD922A" transform="translate(364,377)"/>
<path d="M0 0 C3.37503669 1.1858237 5.64722731 2.27573689 8 5 C7.67 5.66 7.34 6.32 7 7 C4.625 6.3125 4.625 6.3125 2 5 C0.6875 2.375 0.6875 2.375 0 0 Z " fill="#FD9129" transform="translate(481,49)"/>
<path d="M0 0 C1.47919922 0.19142578 1.47919922 0.19142578 2.98828125 0.38671875 C4.47908203 0.56654297 4.47908203 0.56654297 6 0.75 C6.75925781 0.85699219 7.51851563 0.96398437 8.30078125 1.07421875 C8.30078125 1.40421875 8.30078125 1.73421875 8.30078125 2.07421875 C3.68078125 2.40421875 -0.93921875 2.73421875 -5.69921875 3.07421875 C-2.69921875 0.07421875 -2.69921875 0.07421875 0 0 Z " fill="#FD9631" transform="translate(373.69921875,616.92578125)"/>
<path d="M0 0 C0 0.66 0 1.32 0 2 C0.66 2.33 1.32 2.66 2 3 C-2.29 2.67 -6.58 2.34 -11 2 C-11 1.67 -11 1.34 -11 1 C-7.26513121 0.4254048 -3.78706732 0 0 0 Z " fill="#FD9B36" transform="translate(295,618)"/>
<path d="M0 0 C0.66 0.33 1.32 0.66 2 1 C-0.05233685 3.2477975 -1.00667261 4.0022242 -4 5 C-4.66 4.67 -5.32 4.34 -6 4 C-6.33 4.66 -6.66 5.32 -7 6 C-7.66 5.34 -8.32 4.68 -9 4 C-7.54618103 3.30300448 -6.08677047 2.61766134 -4.625 1.9375 C-3.40683594 1.36322266 -3.40683594 1.36322266 -2.1640625 0.77734375 C-1.44992187 0.52082031 -0.73578125 0.26429688 0 0 Z " fill="#FD942B" transform="translate(442,538)"/>
<path d="M0 0 C4.7517398 0.43197635 6.92000054 1.32769295 10 5 C5.75354935 5 3.61475228 3.18249194 0 1 C0 0.67 0 0.34 0 0 Z " fill="#FD912A" transform="translate(435,371)"/>
<path d="M0 0 C0.99 0 1.98 0 3 0 C3.33 3.3 3.66 6.6 4 10 C1 8 1 8 0.48828125 6.0546875 C0.32552083 4.03645833 0.16276042 2.01822917 0 0 Z " fill="#FD932B" transform="translate(477,301)"/>
<path d="M0 0 C0.99 0.33 1.98 0.66 3 1 C0.69 3.31 -1.62 5.62 -4 8 C-4.33 7.01 -4.66 6.02 -5 5 C-3.35 3.35 -1.7 1.7 0 0 Z " fill="#FC912D" transform="translate(509,268)"/>
<path d="M0 0 C2.74277578 3.19990508 4.6302836 6.00499382 6 10 C3.54896452 9.01958581 2.23241214 8.3486182 0.75 6.125 C0 4 0 4 0 0 Z " fill="#FC912B" transform="translate(593,158)"/>
<path d="M0 0 C0.90492188 0.02320313 1.80984375 0.04640625 2.7421875 0.0703125 C4.10730469 0.09738281 4.10730469 0.09738281 5.5 0.125 C6.19867188 0.14820313 6.89734375 0.17140625 7.6171875 0.1953125 C7.6171875 0.5253125 7.6171875 0.8553125 7.6171875 1.1953125 C5.6371875 1.1953125 3.6571875 1.1953125 1.6171875 1.1953125 C1.6171875 1.8553125 1.6171875 2.5153125 1.6171875 3.1953125 C-1.3528125 2.7003125 -1.3528125 2.7003125 -4.3828125 2.1953125 C-2.3828125 0.1953125 -2.3828125 0.1953125 0 0 Z " fill="#FE9930" transform="translate(351.3828125,562.8046875)"/>
<path d="M0 0 C0 4.38968456 -2.12805101 5.76905739 -5 9 C-5.33 8.01 -5.66 7.02 -6 6 C-2.83636364 1.41818182 -2.83636364 1.41818182 0 0 Z " fill="#FC922D" transform="translate(576,500)"/>
<path d="M0 0 C0.33 1.32 0.66 2.64 1 4 C1.66 4 2.32 4 3 4 C3 5.32 3 6.64 3 8 C2.01 8 1.02 8 0 8 C-0.33 8.66 -0.66 9.32 -1 10 C-0.67 6.7 -0.34 3.4 0 0 Z " fill="#FD9832" transform="translate(320,345)"/>
<path d="M0 0 C0.33 0 0.66 0 1 0 C1.24915939 1.76813112 1.47366632 3.53974982 1.6875 5.3125 C1.81511719 6.29863281 1.94273438 7.28476562 2.07421875 8.30078125 C2 11 2 11 -1 14 C-0.67 9.38 -0.34 4.76 0 0 Z " fill="#FDA041" transform="translate(19,267)"/>
<path d="M0 0 C-3.1254959 2.64465038 -6.08788267 3.84414715 -10 5 C-9 2 -9 2 -7.25 0.8125 C-4.70039426 -0.10819096 -2.69076919 -0.14948718 0 0 Z " fill="#FE952B" transform="translate(221,88)"/>
<path d="M0 0 C1.485 0.99 1.485 0.99 3 2 C3 2.66 3 3.32 3 4 C3.66 4.33 4.32 4.66 5 5 C5.33 5.99 5.66 6.98 6 8 C3.53199953 6.84826645 1.95216435 5.95216435 0 4 C0 2.68 0 1.36 0 0 Z " fill="#FD912B" transform="translate(43,624)"/>
<path d="M0 0 C-3.44450737 2.29633824 -5.93812283 2.54016485 -10 3 C-9.67 2.01 -9.34 1.02 -9 0 C-5.8033 -1.37001429 -3.30096158 -0.8252404 0 0 Z " fill="#FD9732" transform="translate(421,609)"/>
<path d="M0 0 C0.66 1.32 1.32 2.64 2 4 C0.75 6.75 0.75 6.75 -1 9 C-1.66 9 -2.32 9 -3 9 C-2.01 6.03 -1.02 3.06 0 0 Z " fill="#FD922E" transform="translate(563,411)"/>
<path d="M0 0 C1.485 0.99 1.485 0.99 3 2 C2.67 4.64 2.34 7.28 2 10 C-0.4294516 6.3558226 -0.16179575 4.28758728 0 0 Z " fill="#FC9C38" transform="translate(316,366)"/>
<path d="M0 0 C0 3 0 3 -1.3125 4.38671875 C-2.875 5.59114583 -4.4375 6.79557292 -6 8 C-5.65120368 4.74456771 -4.97866739 3.98126893 -2.4375 1.75 C-1.633125 1.1725 -0.82875 0.595 0 0 Z " fill="#FD922E" transform="translate(527,251)"/>
<path d="M0 0 C1.32 0.33 2.64 0.66 4 1 C3.67 3.97 3.34 6.94 3 10 C1.19669467 6.39338934 0.53400897 3.91606575 0 0 Z " fill="#FD9834" transform="translate(572,247)"/>
<path d="M0 0 C2.3125 1.3125 2.3125 1.3125 3.3125 4.3125 C0.0125 3.3225 -3.2875 2.3325 -6.6875 1.3125 C-2.6875 -0.6875 -2.6875 -0.6875 0 0 Z " fill="#FD922B" transform="translate(420.6875,80.6875)"/>
<path d="M0 0 C2.08954032 4.17908064 2.16552619 4.80410573 1 9 C0.01 9.33 -0.98 9.66 -2 10 C-1.34 6.7 -0.68 3.4 0 0 Z " fill="#FD9936" transform="translate(54,551)"/>
<path d="M0 0 C0.66 0.33 1.32 0.66 2 1 C1.67 1.66 1.34 2.32 1 3 C-1.06640625 3.4140625 -1.06640625 3.4140625 -3.5625 3.625 C-4.38878906 3.69976563 -5.21507812 3.77453125 -6.06640625 3.8515625 C-7.02353516 3.92503906 -7.02353516 3.92503906 -8 4 C-5.31143836 2.20762558 -3.0466145 1.01553817 0 0 Z " fill="#FE942C" transform="translate(162,547)"/>
<path d="M0 0 C0.66 1.32 1.32 2.64 2 4 C0.625 6 0.625 6 -1 8 C-1.66 8 -2.32 8 -3 8 C-1.125 2.25 -1.125 2.25 0 0 Z " fill="#FD902A" transform="translate(553,432)"/>
<path d="M0 0 C1.5 1.375 1.5 1.375 3 3 C3 3.66 3 4.32 3 5 C2.34 5 1.68 5 1 5 C1 5.66 1 6.32 1 7 C0.01 7.33 -0.98 7.66 -2 8 C-1.34 5.36 -0.68 2.72 0 0 Z " fill="#FD9835" transform="translate(567,400)"/>
<path d="M0 0 C2.50298434 2.93828597 3.46930939 5.17902761 4 9 C3.01 8.67 2.02 8.34 1 8 C-0.35439668 5.29120665 -0.06501451 2.99066732 0 0 Z " fill="#FE932B" transform="translate(434,172)"/>
<path d="M0 0 C-1.98 1.32 -3.96 2.64 -6 4 C-6.66 3.67 -7.32 3.34 -8 3 C-8 2.01 -8 1.02 -8 0 C-2.25 -1.125 -2.25 -1.125 0 0 Z " fill="#FC9832" transform="translate(501,573)"/>
<path d="M0 0 C0.66 0.33 1.32 0.66 2 1 C0.515 2.485 0.515 2.485 -1 4 C-1.99 3.67 -2.98 3.34 -4 3 C-4.33 3.66 -4.66 4.32 -5 5 C-5.66 4.34 -6.32 3.68 -7 3 C-4.69631264 1.93347808 -2.35981813 0.93578995 0 0 Z " fill="#FC9932" transform="translate(184,538)"/>
<path d="M0 0 C0.99 0.33 1.98 0.66 3 1 C3.8125 2.8125 3.8125 2.8125 4 5 C3.34 6.32 2.68 7.64 2 9 C1.34 6.03 0.68 3.06 0 0 Z " fill="#FD932D" transform="translate(569,238)"/>
<path d="M0 0 C0.66 0 1.32 0 2 0 C1.5020163 3.73487777 1.12508244 5.81237635 -1 9 C-1.80967438 6.08517222 -2.21845993 4.53886783 -1.0625 1.6875 C-0.711875 1.130625 -0.36125 0.57375 0 0 Z " fill="#FD952E" transform="translate(90,219)"/>
<path d="M0 0 C1.9375 0.75 1.9375 0.75 4 2 C4.875 4 4.875 4 5 6 C4.34 6.66 3.68 7.32 3 8 C0 2.25 0 2.25 0 0 Z " fill="#FD922B" transform="translate(557,209)"/>
<path d="M0 0 C0.66 0.99 1.32 1.98 2 3 C1.1875 4.9375 1.1875 4.9375 0 7 C-0.99 7.33 -1.98 7.66 -3 8 C-1.125 2.25 -1.125 2.25 0 0 Z " fill="#FE9229" transform="translate(371,183)"/>
<path d="M0 0 C-2.6855594 2.6855594 -5.37621328 3.06049974 -9 4 C-8.67 3.01 -8.34 2.02 -8 1 C-5.29120665 -0.35439668 -2.99066732 -0.06501451 0 0 Z " fill="#FD9630" transform="translate(235,82)"/>
<path d="M0 0 C1 4 1 4 1 4 Z " fill="#FF972D" transform="translate(577,279)"/>
<path d="" fill="#FC972F" transform="translate(0,0)"/>
<path d="M0 0 C3 1 3 1 3 1 Z " fill="#FE9528" transform="translate(260,75)"/>
<path d="M0 0 C3 1 3 1 3 1 Z " fill="#FF9527" transform="translate(316,67)"/>
<path d="M0 0 C2 1 2 1 2 1 Z " fill="#FE972A" transform="translate(448,533)"/>
<path d="" fill="#FC972E" transform="translate(0,0)"/>
<path d="" fill="#FE9429" transform="translate(0,0)"/>
<path d="" fill="#FC9731" transform="translate(0,0)"/>
<path d="M0 0 C2 1 2 1 2 1 Z " fill="#FE982B" transform="translate(354,208)"/>
<path d="" fill="#FA952B" transform="translate(0,0)"/>
<path d="M0 0 C2 1 2 1 2 1 Z " fill="#FD9929" transform="translate(301,6)"/>
<path d="M0 0 C2 1 2 1 2 1 Z " fill="#FD9928" transform="translate(321,5)"/>
<path d="" fill="#F9982F" transform="translate(0,0)"/>
<path d="" fill="#FC972D" transform="translate(0,0)"/>
<path d="" fill="#FA8E23" transform="translate(0,0)"/>
<path d="" fill="#FA9425" transform="translate(0,0)"/>
<path d="" fill="#FC962A" transform="translate(0,0)"/>
<path d="" fill="#FD972E" transform="translate(0,0)"/>
<path d="" fill="#FB982B" transform="translate(0,0)"/>
<path d="" fill="#FE972C" transform="translate(0,0)"/>
<path d="" fill="#FC962B" transform="translate(0,0)"/>
<path d="" fill="#F99425" transform="translate(0,0)"/>
<path d="" fill="#FB9226" transform="translate(0,0)"/>
<path d="" fill="#FA972B" transform="translate(0,0)"/>
<path d="" fill="#FB9226" transform="translate(0,0)"/>
<path d="" fill="#F8942C" transform="translate(0,0)"/>
<path d="" fill="#FE9829" transform="translate(0,0)"/>
<path d="" fill="#FD9827" transform="translate(0,0)"/>
<path d="" fill="#FE9A2A" transform="translate(0,0)"/>
<path d="" fill="#FE962F" transform="translate(0,0)"/>
<path d="" fill="#FF952A" transform="translate(0,0)"/>
<path d="" fill="#FE992E" transform="translate(0,0)"/>
<path d="" fill="#FD9D2F" transform="translate(0,0)"/>
<path d="" fill="#FA952C" transform="translate(0,0)"/>
<path d="" fill="#FF982B" transform="translate(0,0)"/>
<path d="" fill="#FD9A2F" transform="translate(0,0)"/>
<path d="" fill="#FD962B" transform="translate(0,0)"/>
<path d="" fill="#FD9D30" transform="translate(0,0)"/>
<path d="" fill="#FF9826" transform="translate(0,0)"/>
<path d="" fill="#FD982E" transform="translate(0,0)"/>
<path d="" fill="#FB9A2F" transform="translate(0,0)"/>
<path d="" fill="#FE982C" transform="translate(0,0)"/>
<path d="" fill="#F5942C" transform="translate(0,0)"/>
<path d="" fill="#FF992B" transform="translate(0,0)"/>
<path d="" fill="#FF9727" transform="translate(0,0)"/>
<path d="" fill="#F7972F" transform="translate(0,0)"/>
<path d="" fill="#FF9A2A" transform="translate(0,0)"/>
<path d="" fill="#FF9829" transform="translate(0,0)"/>
<path d="" fill="#F7962D" transform="translate(0,0)"/>
<path d="" fill="#FE9B2A" transform="translate(0,0)"/>
<path d="" fill="#FE9A2C" transform="translate(0,0)"/>
<path d="" fill="#F8972B" transform="translate(0,0)"/>
<path d="" fill="#F69430" transform="translate(0,0)"/>
<path d="" fill="#FF9A28" transform="translate(0,0)"/>
<path d="" fill="#F8942B" transform="translate(0,0)"/>
<path d="" fill="#FA972B" transform="translate(0,0)"/>
<path d="" fill="#FE972A" transform="translate(0,0)"/>
<path d="" fill="#F9982B" transform="translate(0,0)"/>
<path d="" fill="#F48929" transform="translate(0,0)"/>
<path d="" fill="#FF972A" transform="translate(0,0)"/>
<path d="" fill="#FE9228" transform="translate(0,0)"/>
<path d="" fill="#FE992B" transform="translate(0,0)"/>
<path d="" fill="#FF9829" transform="translate(0,0)"/>
<path d="" fill="#F4912D" transform="translate(0,0)"/>
<path d="" fill="#FE962C" transform="translate(0,0)"/>
<path d="" fill="#FC972D" transform="translate(0,0)"/>
<path d="" fill="#FD9323" transform="translate(0,0)"/>
<path d="" fill="#FD952A" transform="translate(0,0)"/>
<path d="" fill="#FC9629" transform="translate(0,0)"/>
<path d="" fill="#FC972D" transform="translate(0,0)"/>
<path d="" fill="#FA962A" transform="translate(0,0)"/>
<path d="" fill="#FC9022" transform="translate(0,0)"/>
<path d="" fill="#F6942C" transform="translate(0,0)"/>
<path d="" fill="#FA9A2C" transform="translate(0,0)"/>
<path d="" fill="#FC952A" transform="translate(0,0)"/>
<path d="" fill="#FE982D" transform="translate(0,0)"/>
<path d="" fill="#FA982A" transform="translate(0,0)"/>
<path d="" fill="#FF962B" transform="translate(0,0)"/>
<path d="" fill="#FF972B" transform="translate(0,0)"/>
<path d="" fill="#FC9830" transform="translate(0,0)"/>
<path d="" fill="#FD972B" transform="translate(0,0)"/>
<path d="" fill="#FD9829" transform="translate(0,0)"/>
<path d="" fill="#FB982A" transform="translate(0,0)"/>
<path d="" fill="#FD982E" transform="translate(0,0)"/>
<path d="" fill="#FE9A2E" transform="translate(0,0)"/>
<path d="" fill="#FF942A" transform="translate(0,0)"/>
<path d="" fill="#FF9A2E" transform="translate(0,0)"/>
<path d="" fill="#FD982C" transform="translate(0,0)"/>
<path d="" fill="#FC972B" transform="translate(0,0)"/>
<path d="" fill="#FA992E" transform="translate(0,0)"/>
<path d="" fill="#FD9828" transform="translate(0,0)"/>
<path d="" fill="#FA982C" transform="translate(0,0)"/>
<path d="" fill="#F99123" transform="translate(0,0)"/>
<path d="" fill="#F9962E" transform="translate(0,0)"/>
<path d="" fill="#FB9A2F" transform="translate(0,0)"/>
<path d="" fill="#FD992A" transform="translate(0,0)"/>
<path d="" fill="#FA9732" transform="translate(0,0)"/>
<path d="" fill="#FD9931" transform="translate(0,0)"/>
<path d="" fill="#F88D22" transform="translate(0,0)"/>
<path d="" fill="#FE992E" transform="translate(0,0)"/>
<path d="" fill="#FF982B" transform="translate(0,0)"/>
<path d="" fill="#FF972C" transform="translate(0,0)"/>
<path d="" fill="#FF972C" transform="translate(0,0)"/>
<path d="" fill="#F69129" transform="translate(0,0)"/>
<path d="" fill="#FA942B" transform="translate(0,0)"/>
<path d="" fill="#FC9729" transform="translate(0,0)"/>
<path d="" fill="#FB992E" transform="translate(0,0)"/>
<path d="" fill="#FE952F" transform="translate(0,0)"/>
<path d="" fill="#FD942B" transform="translate(0,0)"/>
<path d="" fill="#FA992D" transform="translate(0,0)"/>
<path d="" fill="#FD9526" transform="translate(0,0)"/>
<path d="" fill="#FE982E" transform="translate(0,0)"/>
<path d="" fill="#FC962A" transform="translate(0,0)"/>
<path d="" fill="#FC9729" transform="translate(0,0)"/>
<path d="" fill="#F9962C" transform="translate(0,0)"/>
<path d="" fill="#FF9423" transform="translate(0,0)"/>
<path d="" fill="#FC9629" transform="translate(0,0)"/>
<path d="" fill="#F9972E" transform="translate(0,0)"/>
<path d="" fill="#FF9728" transform="translate(0,0)"/>
<path d="" fill="#FE9327" transform="translate(0,0)"/>
<path d="" fill="#FE9629" transform="translate(0,0)"/>
<path d="" fill="#FC972B" transform="translate(0,0)"/>
<path d="" fill="#FE9426" transform="translate(0,0)"/>
<path d="" fill="#FB962C" transform="translate(0,0)"/>
<path d="" fill="#FA972C" transform="translate(0,0)"/>
<path d="" fill="#FE9427" transform="translate(0,0)"/>
<path d="" fill="#FC9226" transform="translate(0,0)"/>
<path d="" fill="#FC9526" transform="translate(0,0)"/>
<path d="" fill="#F89429" transform="translate(0,0)"/>
<path d="" fill="#F9952C" transform="translate(0,0)"/>
<path d="" fill="#F9982C" transform="translate(0,0)"/>
<path d="" fill="#FD9527" transform="translate(0,0)"/>
<path d="" fill="#FC942A" transform="translate(0,0)"/>
<path d="" fill="#FB962C" transform="translate(0,0)"/>
<path d="" fill="#FE9629" transform="translate(0,0)"/>
<path d="" fill="#FF9527" transform="translate(0,0)"/>
<path d="" fill="#FD9728" transform="translate(0,0)"/>
<path d="" fill="#F89428" transform="translate(0,0)"/>
<path d="" fill="#FA9124" transform="translate(0,0)"/>
<path d="" fill="#FB9426" transform="translate(0,0)"/>
<path d="" fill="#FF9528" transform="translate(0,0)"/>
<path d="" fill="#F8962E" transform="translate(0,0)"/>
<path d="" fill="#FF9729" transform="translate(0,0)"/>
<path d="" fill="#F89A30" transform="translate(0,0)"/>
<path d="" fill="#FE9629" transform="translate(0,0)"/>
<path d="" fill="#F9962E" transform="translate(0,0)"/>
<path d="" fill="#FC9426" transform="translate(0,0)"/>
<path d="" fill="#FA9B31" transform="translate(0,0)"/>
<path d="" fill="#FC9328" transform="translate(0,0)"/>
<path d="" fill="#FD972A" transform="translate(0,0)"/>
<path d="" fill="#FE962A" transform="translate(0,0)"/>
<path d="" fill="#FC962D" transform="translate(0,0)"/>
<path d="" fill="#F9922B" transform="translate(0,0)"/>
<path d="" fill="#FB972C" transform="translate(0,0)"/>
<path d="" fill="#F9982C" transform="translate(0,0)"/>
<path d="" fill="#F98F23" transform="translate(0,0)"/>
<path d="" fill="#FC9329" transform="translate(0,0)"/>
<path d="" fill="#FB8B21" transform="translate(0,0)"/>
<path d="" fill="#FF982D" transform="translate(0,0)"/>
<path d="" fill="#FF9426" transform="translate(0,0)"/>
<path d="" fill="#FE9527" transform="translate(0,0)"/>
<path d="" fill="#FE9426" transform="translate(0,0)"/>
<path d="" fill="#FC9629" transform="translate(0,0)"/>
<path d="" fill="#FC9421" transform="translate(0,0)"/>
<path d="" fill="#F8982D" transform="translate(0,0)"/>
<path d="" fill="#FA962B" transform="translate(0,0)"/>
<path d="" fill="#FC992B" transform="translate(0,0)"/>
<path d="" fill="#FD9326" transform="translate(0,0)"/>
<path d="" fill="#FF972A" transform="translate(0,0)"/>
<path d="" fill="#F8952E" transform="translate(0,0)"/>
<path d="" fill="#FD9627" transform="translate(0,0)"/>
<path d="" fill="#FD9629" transform="translate(0,0)"/>
<path d="" fill="#F69125" transform="translate(0,0)"/>
<path d="" fill="#FB9326" transform="translate(0,0)"/>
<path d="" fill="#FD9526" transform="translate(0,0)"/>
<path d="" fill="#FA9929" transform="translate(0,0)"/>
<path d="" fill="#FE972D" transform="translate(0,0)"/>
<path d="" fill="#FE9725" transform="translate(0,0)"/>
<path d="" fill="#FF9B2C" transform="translate(0,0)"/>
<path d="" fill="#FC982C" transform="translate(0,0)"/>
<path d="" fill="#FE9929" transform="translate(0,0)"/>
<path d="" fill="#FF9829" transform="translate(0,0)"/>
</svg>
